{"title":"Des.Hommes.Et.Des.Dieux.2010.720p.BRRip.x264.aac.mp4.anoXmous","uid":6904854,"size":734229161,"categoryP":"video","categoryS":"hd___movies","magnet":"?xt=urn:btih:447bdd88de5bab55be30cf8ec99ee4df7c40a710&amp;dn=Des.Hommes.Et.Des.Dieux.2010.720p.BRRip.x264.aac.mp4.anoXmous&amp;tr=udp%3A%2F%2Ftracker.openbittorrent.com%3A80&amp;tr=udp%3A%2F%2Fopen.demonii.com%3A1337&amp;tr=udp%3A%2F%2Ftracker.coppersurfer.tk%3A6969&amp;tr=udp%3A%2F%2Fexodus.desync.com%3A6969","seeders":0,"leechers":1,"uploader":"anoXmous","files":-1,"time":1324547286,"description":"Des.Hommes.Et.Des.Dieux.2010.720p.BRRip.x264.aac.mp4.anoXmous\n\nFormat                           : MPEG-4\nFormat profile                   : Base Media\nCodec ID                         : isom\nFile size                        : 700 MiB\nDuration                         : 2h 2mn\nOverall bit rate mode            : Variable\nOverall bit rate                 : 799 Kbps\n\nVideo\nID                               : 1\nFormat                           : AVC\nFormat/Info                      : Advanced Video Codec\nFormat profile                   : &lt;a class=&quot;__cf_email__&quot; href=&quot;/cdn-cgi/l/email-protection&quot; data-cfemail=&quot;87cfeee0efc7cbb3a9b6&quot;&gt;[email&amp;#160;protected]&lt;/a&gt;&lt;script cf-hash='f9e31' type=&quot;text/javascript&quot;&gt;\n/* &lt;![CDATA[ */!function(){try{var t=&quot;currentScript&quot;in document?document.currentScript:function(){for(var t=document.getElementsByTagName(&quot;script&quot;),e=t.length;e--;)if(t[e].getAttribute(&quot;cf-hash&quot;))return t[e]}();if(t&amp;&amp;t.previousSibling){var e,r,n,i,c=t.previousSibling,a=c.getAttribute(&quot;data-cfemail&quot;);if(a){for(e=&quot;&quot;,r=parseInt(a.substr(0,2),16),n=2;a.length-n;n+=2)i=parseInt(a.substr(n,2),16)^r,e+=String.fromCharCode(i);e=document.createTextNode(e),c.parentNode.replaceChild(e,c)}}}catch(u){}}();/* ]]&gt; */&lt;/script&gt;\nFormat settings, CABAC           : Yes\nFormat settings, ReFrames        : 4 frames\nCodec ID                         : avc1\nCodec ID/Info                    : Advanced Video Coding\nDuration                         : 2h 2mn\nBit rate                         : 733 Kbps\nMaximum bit rate                 : 5 428 Kbps\nWidth                            : 1 280 pixels\nHeight                           : 544 pixels\nDisplay aspect ratio             : 2.35:1\nOriginal display aspect ratio    : 2.35:1\nFrame rate mode                  : Constant\nFrame rate                       : 23.976 fps\nColor space                      : YUV\nChroma subsampling               : 4:2:0\nBit depth                        : 8 bits\nScan type                        : Progressive\nBits/(Pixel*Frame)               : 0.044\nStream size                      : 642 MiB (92%)\nWriting library                  : x264 core 120 r2120 0c7dab9\n\n\nAudio\nID                               : 2\nFormat                           : AAC\nFormat/Info                      : Advanced Audio Codec\nFormat profile                   : LC\nCodec ID                         : 40\nDuration                         : 2h 2mn\nBit rate mode                    : Variable\nBit rate                         : 63.4 Kbps\nMaximum bit rate                 : 94.2 Kbps\nChannel(s)                       : 2 channels\nChannel positions                : Front: L R\nSampling rate                    : 48.0 KHz \nCompression mode                 : Lossy\nStream size                      : 55.5 MiB (8%)\nLanguage                         : French\n\n                              SUB:\nDes.Hommes.Et.Des.Dieux.2010.720p.BRRip.x264.aac.mp4.anoXmous_eng.srt\nDes.Hommes.Et.Des.Dieux.2010.720p.BRRip.x264.aac.mp4.anoXmous_fra.srt\nDes.Hommes.Et.Des.Dieux.2010.720p.BRRip.x264.aac.mp4.anoXmous_swe.srt\n\n               &lt;a href=&quot; http://www.imdb.com/title/tt1588337/&quot; rel=&quot;nofollow&quot; target=&quot;_NEW&quot;&gt; http://www.imdb.com/title/tt1588337/&lt;/a&gt;\n\n  +++++++++ This work very fine with PSP and XBOX :) ++++++++++\n","torrent":{"xt":"urn:btih:447bdd88de5bab55be30cf8ec99ee4df7c40a710","amp;dn":"Des.Hommes.Et.Des.Dieux.2010.720p.BRRip.x264.aac.mp4.anoXmous","amp;tr":["udp%3A%2F%2Ftracker.openbittorrent.com%3A80","udp%3A%2F%2Fopen.demonii.com%3A1337","udp%3A%2F%2Ftracker.coppersurfer.tk%3A6969","udp%3A%2F%2Fexodus.desync.com%3A6969"],"infoHash":"447bdd88de5bab55be30cf8ec99ee4df7c40a710","infoHashBuffer":{"type":"Buffer","data":[68,123,221,136,222,91,171,85,190,48,207,142,201,158,228,223,124,64,167,16]},"announce":[],"urlList":[]}}